<?xml version="1.0" encoding="UTF-8"?>
<svg id="Camada_1" data-name="Camada 1" xmlns="http://www.w3.org/2000/svg" viewBox="0 0 1920 1080">
  <defs>
    <style>
      .cls-1 {
        fill: #FD953A;
      }

      .cls-1, .cls-2, .cls-3, .cls-4, .cls-5, .cls-6 {
        stroke-width: 0px;
      }

      .cls-7 {
        stroke: #000;
        stroke-miterlimit: 10;
        stroke-width: .61px;
      }

      .cls-7, .cls-4 {
        fill: none;
      }

      .cls-3 {
        fill: #de862b;
      }

      .cls-5 {
        fill: #fff;
      }

      .cls-6 {
        fill: #252b37;
      }
    </style>
  </defs>
  <g>
    <g>
      <g>
        <path class="cls-3" d="m340.64,725.39c-163.09,3.93-224.45-102.45-224.45-102.45,37.24-4.89,59.53-55.65,59.53-55.65-45.85-125.12,12.7-212.77,12.7-212.77,18.69,17.11,52.85,31.52,52.85,31.52,51.9,26.77,68.81,62.95,68.81,62.95,32.3-16.43,67.25-17,67.25-17,.68,14.42-2.52,21.71-2.52,21.71l14.63.24s28.08-38.59,63.53-50.09c35.45-11.5,65.57-31.99,65.57-31.99,7.85,13.23,24.34,28.91,24.34,104.33s-30.74,105.49-30.74,105.49c8.11,47.97,52.93,52.29,52.93,52.29-7.4,35.78-61.36,87.49-224.45,91.42Z"/>
        <path class="cls-1" d="m503.77,583.09c-.46-2.75.41-5.51,2.4-7.46.07-.07,7.11-7.25,14.07-22.96,6.46-14.58,14.15-39.69,14.15-76.49,0-60.25-10.54-80.27-18.43-92.59-11.3,6.92-34.29,19.89-60.35,28.34-32.33,10.49-59.02,46.65-59.28,47.01-1.6,2.2-4.16,3.5-6.87,3.5-.05,0-14.77-.24-14.77-.24-2.89-.05-5.62-1.44-7.14-3.9-1.51-2.44-1.74-5.36-.53-7.96.17-.45,1.26-3.55,1.72-9.22-11.87,1.24-33.99,4.87-54.78,15.44-1.21.62-2.54.93-3.88.93-.92,0-1.85-.15-2.74-.46-2.18-.75-3.95-2.34-4.93-4.43-.16-.34-16.59-33.95-64.74-58.88-3.28-1.4-28.07-12.21-46.85-26.27-4.8,9.21-12.29,25.87-17.65,48.48-4.99,21.06-7.11,42.93-6.29,65,1.03,27.65,6.69,55.72,16.84,83.42.76,2.06.68,4.33-.2,6.34-.88,2.01-19.84,44.39-53.41,57.37,7.22,9.44,20.58,24.71,41.02,39.84,19.23,14.24,40.89,25.58,64.38,33.72,29.42,10.19,61.85,15.36,96.38,15.36h0c2.82,0,5.7-.03,8.55-.1,71.75-1.73,127.92-12.77,166.92-32.83,23.56-12.11,40.15-27.71,46.87-43.74-4.73-1.37-10.68-3.59-16.83-7.15-12.73-7.37-28.89-22.04-33.63-50.08Z"/>
      </g>
      <path class="cls-5" d="m552.72,644.36c-7.57,14.75-24.86,29.93-46.66,41.14-39,20.06-95.83,29.67-167.59,31.39-2.85.07-5.73.1-8.55.1h0c-34.53,0-66.96-5.16-96.38-15.35-23.49-8.13-45.15-19.48-64.39-33.72-20.1-14.88-33.36-29.89-40.65-39.36,5.44.18,21.22.51,34.81-.86,16.72-1.68,44.06-5.83,67.83-2.1,23.77,3.74,48.28,9.47,77.83,31.22,29.55,21.76,43.58,7.93,44.74,6.86,1.17-1.06,24.31-22.87,58.34-27.76,34.03-4.88,47.13-4.17,79.61.64,32.49,4.82,61.07,7.8,61.07,7.8Z"/>
      <g>
        <path class="cls-2" d="m281.16,623.73c5.01,3.29,9.71,6.97,14.68,10.43l.49-.37c-1.93-4.86-4.5-9.5-7.68-13.66-7.2-9.73-17.46-17.24-29.35-20.14-17.25-4.4-37.43,3.2-46.18,18.9l.43.44c4.9-1.92,9.3-3.51,14.08-4.86,18.81-5.27,33.27-3.18,49.91,6.95.78.53,2.79,1.79,3.62,2.31Z"/>
        <path class="cls-2" d="m399.88,625.49c.88-.42,3.02-1.44,3.86-1.89,23.87-11.15,41.37-6.83,63.82,5.21l.47-.39c-.74-2.06-1.81-3.92-3-5.72-6.19-9.18-16.08-15.7-27.03-17.85-16.62-3.37-33.91,4.01-45.15,16.2-3.64,3.78-6.71,8.09-9.19,12.7,0,0,.44.43.44.43,5.34-2.87,10.42-6,15.78-8.69Z"/>
      </g>
      <path class="cls-2" d="m308.93,665.83c4.13,5.88,22.86,28.94,46,.99.72-.88,1.02-2.05.74-3.15-.89-3.49-5.45-9.94-23.78-11.11-17.27-1.1-22.52,4.37-23.76,8.37-.52,1.67-.2,3.48.8,4.9Z"/>
      <path class="cls-5" d="m497.81,568.6c-1.01,1.74-1.51,2.34-2.32,4.19l-.4,1.2c-.76,1.73-2.82.58-3.62-1.13-14.23-30.38-52.39-60.36-62.22-67.98-1.15-.89-1.14-2.62,0-3.5,12.37-9.48,69.88-56.36,84.65-108.8.63-2.22,3.8-2.13,4.29.12,5.85,26.98,18.8,108.71-20.38,175.9Z"/>
      <path class="cls-5" d="m237.01,507.47c-1.63,1.31-3.36,2.8-5.16,4.43-19.73,17.87-48.15,52.45-48.15,52.45-10.15-27.7-15.82-55.77-16.84-83.42-.82-22.07,1.3-43.94,6.29-65,5.36-22.59,12.84-39.24,17.64-48.46-.3,1.2-14.59,59.38,46.21,140.01Z"/>
      <g>
        <path class="cls-2" d="m512.15,581.68s30.74-30.07,30.74-105.49-16.49-91.1-24.34-104.33c0,0-30.12,20.49-65.57,31.99-35.45,11.5-63.53,50.09-63.53,50.09l-14.63-.24s3.2-7.29,2.52-21.71c0,0-34.95.56-67.25,17,0,0-16.91-36.18-68.81-62.95,0,0-34.16-14.41-52.85-31.52,0,0-58.55,87.66-12.7,212.77,0,0-22.29,50.77-59.53,55.65,0,0,61.36,106.38,224.45,102.45,163.09-3.93,217.04-55.64,224.45-91.42,0,0-44.83-4.32-52.93-52.29Zm-4.8,102.38c-39.01,20.05-95.17,31.1-166.92,32.83-2.85.07-5.73.1-8.55.1h0c-34.53,0-66.95-5.17-96.38-15.36-23.49-8.14-45.15-19.48-64.38-33.72-20.43-15.13-33.8-30.4-41.02-39.84,33.57-12.98,52.53-55.36,53.41-57.37.88-2.01.95-4.28.2-6.34-10.15-27.7-15.82-55.77-16.84-83.42-.82-22.07,1.3-43.94,6.29-65,5.36-22.61,12.85-39.26,17.65-48.48,18.78,14.06,43.57,24.87,46.85,26.27,48.15,24.94,64.58,58.54,64.74,58.88.98,2.09,2.75,3.68,4.93,4.43.89.31,1.82.46,2.74.46,1.33,0,2.66-.32,3.88-.93,20.79-10.58,42.91-14.21,54.78-15.44-.46,5.66-1.55,8.76-1.72,9.22-1.21,2.6-.98,5.52.53,7.96,1.52,2.46,4.25,3.86,7.14,3.9,0,0,14.73.24,14.77.24,2.72,0,5.27-1.3,6.87-3.5.26-.36,26.95-36.52,59.28-47.01,26.06-8.46,49.05-21.42,60.35-28.34,7.89,12.32,18.43,32.34,18.43,92.59,0,36.81-7.7,61.91-14.15,76.49-6.96,15.71-14,22.89-14.07,22.96-1.99,1.95-2.86,4.71-2.4,7.46,4.74,28.03,20.9,42.71,33.63,50.08,6.15,3.56,12.1,5.78,16.83,7.15-6.72,16.03-23.31,31.62-46.87,43.74Z"/>
        <path class="cls-2" d="m302.4,452.61s-25.09,18.17-27.01,33.83c0,0,22.07-22.89,38.55-29.88"/>
        <path class="cls-7" d="m190.8,367.46s-16.5,59.06,47.44,139.99c0,0-35.98,31.32-54.54,56.91"/>
        <path class="cls-2" d="m179.85,572.34c-.87,0-1.74-.26-2.49-.81-1.9-1.38-2.32-4.04-.94-5.94,15.69-21.64,46.89-50.51,56.02-58.68-31.69-41.17-42.58-76.52-46.09-99.15-3.96-25.5.19-40.8.36-41.44.52-1.88,2.23-3.11,4.09-3.11.38,0,.76.05,1.15.16,2.26.63,3.58,2.97,2.95,5.23h0c-.04.14-3.87,14.58-.06,38.44,3.52,22.08,14.49,56.96,46.74,97.78,1.41,1.78,1.17,4.35-.54,5.84-.36.31-39.68,35.03-57.74,59.93-.83,1.15-2.13,1.76-3.44,1.76Z"/>
        <path class="cls-2" d="m515.9,382.98s-4.37,53.62-86.59,117.34c-1.88,1.46-1.92,4.28-.07,5.78,11.75,9.55,48.51,40.74,61.13,66.95,1.22,2.54,4.75,2.73,6.21.31,11.84-19.6,46.34-88.53,19.33-190.39Zm-7.42,140.42c-4.69,16.44-10.42,29.24-14.92,37.85-14.16-22.82-40.62-46.52-54.24-57.92,42.87-34.24,64.19-65.61,74.77-87.64,2.56,16.36,3.66,32.54,3.27,48.37-.51,20.49-3.5,40.45-8.88,59.35Z"/>
      </g>
    </g>
    <g>
      <path class="cls-6" d="m804.28,512.43h-83.03v41.45h72.34v34.67h-72.34v73.38h-36.89v-184.17h119.91v34.67Z"/>
      <path class="cls-6" d="m952.17,594.16c0,4.35-.26,8.43-.78,12.25h-105.45c2.43,8.6,7.08,15.43,13.95,20.46,6.86,5.04,15.21,7.56,25.03,7.56,7.91,0,15.16-1.58,21.77-4.76,6.6-3.17,11.82-7.19,15.64-12.06l23.2,20.33c-7.21,8.6-16.14,15.29-26.79,20.07-10.65,4.78-22.27,7.17-34.87,7.17-14.25,0-27.16-3.13-38.71-9.38-11.56-6.26-20.59-14.88-27.11-25.87-6.52-10.99-9.78-23.18-9.78-36.56s3.15-25.22,9.45-36.04c6.3-10.82,14.99-19.31,26.07-25.48,11.08-6.17,23.35-9.25,36.82-9.25,20.42,0,37.45,6.8,51.09,20.4,13.64,13.6,20.46,30.65,20.46,51.16Zm-49.73-33.56c-6.3-5.08-13.67-7.62-22.09-7.62s-15.77,2.54-22.03,7.62c-6.26,5.08-10.47,11.88-12.64,20.4h69.47c-2.17-8.51-6.41-15.32-12.71-20.4Z"/>
      <path class="cls-6" d="m1049.87,557.53h-36.63v56.57c0,11.65,6.26,17.47,18.77,17.47,5.3,0,11.25-1.52,17.86-4.56v32.32c-7.21,3.91-15.69,5.87-25.42,5.87-15.21,0-26.65-4.06-34.35-12.19-7.69-8.12-11.54-19.23-11.54-33.3v-62.17h-21.64v-31.67h21.64v-34.54h34.67v34.54h36.63v31.67Z"/>
      <path class="cls-6" d="m1132.13,665.19c-20.77,0-38.17-6.82-52.2-20.46-14.03-13.64-21.05-30.59-21.05-50.83s7.02-37.19,21.05-50.83c14.03-13.64,31.43-20.46,52.2-20.46,13.56,0,25.83,3.04,36.82,9.12,10.99,6.08,19.62,14.34,25.87,24.76l-30.24,18.12c-3.13-5.56-7.54-10.01-13.23-13.36-5.69-3.34-12.1-5.02-19.23-5.02-10.69,0-19.6,3.61-26.72,10.82-7.13,7.21-10.69,16.16-10.69,26.85s3.56,19.64,10.69,26.85c7.12,7.21,16.03,10.82,26.72,10.82,7.04,0,13.43-1.67,19.16-5.02,5.74-3.34,10.17-7.84,13.29-13.49l30.24,18.12c-6.26,10.51-14.88,18.81-25.87,24.9-10.99,6.08-23.27,9.12-36.82,9.12Z"/>
      <path class="cls-6" d="m1287.2,522.6c16.07,0,28.96,4.8,38.65,14.4,9.69,9.6,14.53,22.4,14.53,38.39v86.55h-34.8v-75.34c0-9.21-2.69-16.57-8.08-22.09-5.39-5.52-12.56-8.28-21.51-8.28-9.56,0-17.29,2.85-23.2,8.54-5.91,5.69-8.86,13.19-8.86,22.48v74.69h-34.67v-192.25h34.67v72.08c10.95-12.77,25.37-19.16,43.27-19.16Z"/>
      <path class="cls-6" d="m1488.2,512.43h-83.03v41.45h72.34v34.67h-72.34v73.38h-36.89v-184.17h119.92v34.67Z"/>
      <path class="cls-6" d="m1617.59,644.73c-13.99,13.64-31.37,20.46-52.14,20.46s-38.17-6.82-52.2-20.46c-14.03-13.64-21.05-30.59-21.05-50.83s7.02-37.19,21.05-50.83c14.03-13.64,31.43-20.46,52.2-20.46s38.15,6.82,52.14,20.46c13.99,13.64,20.99,30.59,20.99,50.83s-7,37.19-20.99,50.83Zm-52.14-13.16c10.77,0,19.68-3.58,26.72-10.75,7.04-7.17,10.56-16.14,10.56-26.92s-3.52-19.75-10.56-26.92c-7.04-7.17-15.95-10.75-26.72-10.75s-19.6,3.61-26.72,10.82c-7.13,7.21-10.69,16.16-10.69,26.85s3.56,19.64,10.69,26.85c7.12,7.21,16.03,10.82,26.72,10.82Z"/>
      <path class="cls-6" d="m1780.89,661.94h-42.23l-30.37-44.58-30.76,44.58h-41.58l48.75-68.3-47.97-67.78h42.1l29.72,43.66,29.59-43.66h41.84l-48.23,67.78,49.14,68.3Z"/>
    </g>
  </g>
  <rect class="cls-4" x="0" y="235.43" width="1920" height="609.14"/>
</svg>
