<svg viewBox="140.7545850340136 -276.202304 567.3488299319728 470.778732" xmlns="http://www.w3.org/2000/svg" style="max-height: 500px" width="567.3488299319728" height="470.778732"><defs><linearGradient id="Gradiente_sem_nome_9" data-name="Gradiente sem nome 9" x1="604.58" y1="298.81" x2="721.19" y2="201.23" gradientUnits="userSpaceOnUse"><stop offset="0.1" stop-color="#f2e264" stop-opacity="0"/><stop offset="1" stop-color="#f2e264"/></linearGradient></defs><g transform="matrix(1, 0, 0, 1, -114.773941, -428.991333)"><path style="fill: rgb(253, 149, 58); stroke-width: 0px;" class="cls-3" d="m809.92,514.53s-9.23,19.04-41.21,20.82c-31.98,1.78-76,6.03-92.66,5.69-16.66-.34-73.12,6.74-76.12,8.85-3.01,2.11-33.95,7.32-45.25,10.96-11.3,3.64-36.42,11.79-54.8,8.61-18.38-3.18-38.61-2.14-52.89-8.61s-54.5-24.32-66.52-27.3c-12.02-2.97-43.47-7.04-57.23-9.85s-44.92-18.12-44.92-18.12l-9.46-15.64,27.9-14.4s33.32-36.59,34.51-38.38,35.83-43.92,35.83-43.92l15.71-21.13,29.04-28.2.24-4.33s-8.33-10.31-10.91-14.28c-2.58-3.97-19.44-24.99-23.2-36.29-3.77-11.3-11.63-34.47-13.29-38.79-1.66-4.32-11.35-29.02-11.85-35.29s-1.56-12.16-1.92-15.88c-.36-3.72-1.45-29.18-1.45-29.18l3.22-6.85,18.44,9.52,69.76,44.18,49.98,52.8,8.63,9.37s30.34-14.28,41.8-16.66,13.09-2.68,13.09-2.68c0,0,4.16-.3,13.09-1.04,8.92-.74,8.03,16.21,4.76,22.16-3.27,5.95,17.85,5.5,17.85,5.5l13.98-6.4s33.02-35.55,52.21-44.33,63.51-31.68,70.21-34.21c6.69-2.53,24.69-12.89,26.18-13.59s4.31-10.07,11.3,2.43c6.99,12.49,13.24,35.25,13.39,35.7s9.37,76.01,9.37,76.01c0,0-3.12,24.44-6.4,39.67s-12.94,54.94-16.06,62.67c-3.12,7.73-6.54,15.69-11.6,22.87-5.06,7.18-9.37,13.13-4.76,26.22,4.61,13.09,21.47,32.72,28.66,38.23,7.19,5.5,16.86,8.63,22.81,11.01,5.95,2.38,12.72,1.61,12.72,1.61l-2.16,10.44Z"/><path style="fill: rgb(228, 92, 1); stroke-width: 0px;" class="cls-1" d="M 534.34 531.47 C 534.13 531 533.98 530.51 533.85 530.01 C 532.82 525.84 528.07 505.52 527.9 483.79 C 527.9 483.79 526.32 443.93 547.34 415.57 C 568.36 387.21 586.41 382.65 592.46 377.09 C 598.33 371.7 613.06 358.85 609.96 332.21 C 609.76 330.51 610.01 328.78 610.72 327.22 C 616.1 315.32 638.04 269.97 677.45 245.21 C 720.68 218.04 743.29 207.73 751.23 198.41 C 751.48 198.12 754.09 191.77 754.32 191.49 C 758.65 186.25 764.57 193.17 767.61 199.26 C 772.86 209.79 778.91 223.73 779.89 233.71 C 781.67 251.86 791.49 302.03 783.46 336.29 C 775.82 368.89 761.17 411.41 746.44 433.91 C 745.02 436.08 744.54 438.73 745.15 441.25 C 748.91 456.91 758.11 488.03 798.93 500.5 C 799.56 500.69 800.18 500.93 800.76 501.25 C 800.98 501.37 801.26 501.51 801.6 501.66 C 806.98 504.07 808.72 510.86 805.3 515.66 C 795.34 529.62 768.683 546.189 752.813 557.149 C 752.063 557.669 754.253 560.442 753.383 560.712 C 734.883 566.542 637.95 596.36 614.78 599.83 C 591.2 603.37 545.22 556.47 534.35 531.5 L 534.34 531.47 Z"/><path style="fill: rgb(228, 92, 1); stroke-width: 0px;" class="cls-1" d="m483.57,505.6s-24.69-22.81-72.88-23.6c0,0,30.94-33.72,72.88,23.6Z"/><path style="fill: rgb(148, 60, 16); stroke-width: 0px;" class="cls-16" d="m341.08,172.49s11.01,10.34,19.93,17.78c8.92,7.44,45.52,45.22,55.33,64.85,9.82,19.63,19.54,35.7,18.35,51.96s-23.1,48.89-23.1,48.89l94.11-64.59-18.44-29.32-54.54-51.76-69.22-37.81-14.22-9.2-8.19,9.2"/><path style="fill: rgb(228, 92, 1); stroke-width: 0px;" class="cls-1" d="m597.81,310.05s-6.25,9.92-6.1,27.33c0,0-9.37-7.73-6.69-28.26,0,0-9.67,8.03-26.33,6.69-16.66-1.34-33.47-6.99-55.63-4.91-22.16,2.08-39.42,12.64-49.98,19.93-10.56,7.29-31.09,21.27-41.5,25.14,0,0,40-27.46,50.49-42.54,10.49-15.07,37.46-49.19,96.17-55.14l22.21-.1-11.7,25.68,34.71-.4-5.65,26.57"/><path style="fill: rgb(242, 226, 100); stroke-width: 0px;" class="cls-11" d="m324.43,470.9c7.75-7.83,13.4-17.46,18.66-27.14,8.77-16.13,16.69-32.71,24.61-49.27-20.31,16.62-32.41,41.09-49.86,60.69-9.45,10.61-20.5,19.78-32.65,27.13-2.05,1.24-5.81,2.27-5.26,5.24.59,3.17,4.09,2.58,6.38,2.27,6.75-.93,13.36-2.9,19.52-5.82,6.89-3.25,13.23-7.68,18.59-13.09Z"/><path style="fill: rgb(242, 226, 100); stroke-width: 0px;" class="cls-11" d="m462.39,312.23c9.88-16.88,25.42-30.03,42.83-38.95,17.41-8.92,36.66-13.8,56.03-16.46,3.35-.46,6.91-.83,10.01.53,2.82,1.23,5.57,4.41,2.75,6.74-2.49,2.05-8.47,2.43-11.55,3.32-8.59,2.48-17.1,5.25-25.51,8.31-16.81,6.12-33.2,13.4-49.02,21.75-4.35,2.3-8.66,4.68-12.92,7.14-3,1.73-10.91,4.68-12.64,7.62Z"/><path style="fill: url(&quot;#Gradiente_sem_nome_9&quot;); stroke-width: 0px;" class="cls-12" d="m597.87,308.22c3.14,3.76,9.14,3.89,13.51,1.68,4.37-2.22,7.52-6.21,10.61-10.01,28.19-34.68,63.4-63.64,102.88-84.59,12.92-6.86,27.3-13.88,33.32-27.21-27.86,9.81-55.88,19.69-81.67,34.1-14.91,8.33-28.98,18.16-41.96,29.26-11.36,9.71-26.04,21.51-32.89,35.04-3.03,5.98-8.97,15.51-3.79,21.72Z"/><path style="fill: rgb(255, 255, 255); stroke-width: 0px;" class="cls-7" d="m269.74,490.26s1.73,7.91,60.33,1.66c58.61-6.25,86.27,3.47,86.27,3.47,0,0-.89-4.36-13.68-8.23,0,0,57.42.3,104.12,51.47l46.11,3.47s61.58-57.02,134.17-45.42c0,0-3.27.89-14.28,7.14,0,0,44.92-5.35,87.76,6.54,0,0,24.69,5.35,46.71,2.08,0,0-3.67,13.98-11.21,21.12-7.54,7.14-37.33,27.96-50.59,34.21-13.27,6.25-68,19.83-87.84,24.54-19.83,4.71-65.84,11.45-76.95,13.44-11.11,1.98-42.94,7.24-70.01,3.97-27.07-3.27-91.33-16.36-121.67-27.67-30.34-11.3-78.54-51.17-95.49-65.74-16.96-14.58-23.74-26.05-23.74-26.05Z"/><path style="fill: rgb(255, 255, 255); stroke-width: 0px;" class="cls-7" d="m412.87,339.6s-58.35-83.06-62.47-146.17l-1.13-28.36s-17.41,35-20.39,48.69c-2.97,13.68-9.82,62.47-9.82,77.35s-2.97,40.85,0,53.45c2.97,12.59,16.36,60.11,19.39,69.12,3.03,9.01,12.15,0,12.15,0l30.64-37.93,28.86-30.34,2.33-3.07.45-2.73Z"/><path style="fill: rgb(255, 255, 255); stroke-width: 0px;" class="cls-7" d="m649.77,340.79s24.99,22.41,27.77,25.68,19.73,23.1,23.2,27.37c3.47,4.26,14.68,16.66,15.37,17.45.69.79,10.71,15.07,11.3,15.57s2.58.3,6.64-7.73c4.07-8.03,11.8-24.89,12.4-26.48.59-1.59,12-30.64,12.49-34.51.5-3.87,3.87-22.11,4.36-24.79s3.17-21.02,3.57-26.18c.4-5.16,1.19-12.1,1.49-18.05.3-5.95.59-12.49,0-16.56-.59-4.07-.99-15.67-1.09-20.13-.1-4.46-1.19-14.78-1.59-16.86-.4-2.08-1.49-12.99-1.88-14.97-.4-1.98-4.17-21.62-4.26-22.71-.09-1.09-2.97-10.21-2.97-10.21l-2.48,4.96-7.93,22.31s-10.11,24-12.1,27.47c-1.98,3.47-4.86,8.83-8.13,12.99-3.27,4.16-24.59,28.46-27.17,31.63-2.58,3.17-12.89,14.68-15.77,17.06-2.88,2.38-33.22,36.69-33.22,36.69Z"/><path style="fill: rgb(242, 237, 225); stroke-width: 0px;" class="cls-8" d="m715.91,273.38l-66.14,65.23,6.64,7.34,40.06,39.47s5.35-6.94,3.17-16.66c0,0,19.24-11.01,22.01-32.48,0,0,.34.94-12.42,1.93,0,0,18.76-49.74,6.66-64.83"/><path style="fill: rgb(215, 198, 170); stroke-width: 0px;" class="cls-14" d="m806.35,518.89s-34.32,41.65-66.54,53.15c-32.22,11.5-76.45,17.2-92.22,22.28-15.77,5.08-35.53,3.5-47.66,7.46-12.13,3.97-35.65,5.95-42.34,7.14-6.68,1.19-59.33-1.59-59.38-1.59s-1.25-.4-1.25-.4l-51.17-8.53-59.5-21.22-62.5-32.92-50.15-48.89s75.36,60.15,161.04,86.57c19.44,6.35,47.2,15.46,119.39,14.27,0,0,37.29-1.58,65.45-9.12,28.16-7.54,62.17-12.05,100.1-26.25,37.93-14.21,84.07-43.98,90.29-49.9,6.22-5.93-3.57,7.93-3.57,7.93Z"/><path style="fill: rgb(242, 237, 225); stroke-width: 0px;" class="cls-8" d="m344.96,196.12c.55-1.82,3.34-7.82,5.24-7.94,2.31-.14,1.6,6.63,1.86,8.93,1.53,13.29-.54,26.7-2.01,39.99-2.98,26.85-3.52,53.97-1.66,80.92.93,13.54,2.47,27.03,4.62,40.43,1.07,6.7,2.29,13.37,3.67,20.02,1.09,5.28,4.5,12.87,3.95,18.22-.79,7.53-11.89,2.12-14.14-1.8-2.81-4.89-3.74-11.97-5.15-17.41-1.62-6.29-3.06-12.63-4.31-19.01-4.99-25.4-7.04-51.36-6.13-77.23.91-25.86,4.77-51.62,11.61-76.58.78-2.86,1.61-5.71,2.47-8.54Z"/><path style="fill: rgb(215, 198, 170); stroke-width: 0px;" class="cls-14" d="m364.94,395.83c3.12,2.69-6.48,4.52-10.22,2.07-3.19-2.09-3.51-6.25-4.26-9.64-1.06-4.83-2.05-9.68-2.95-14.54-7.19-38.67-9.35-78.26-6.48-117.48,1.62-22.08,4.83-44.04,9.64-65.65,2.87,21.46,7.93,42.61,15.04,63.06,0,0-5.88,9.3-7.53,18.13-1.65,8.83.61,39.27,3.11,43.83,2.5,4.56-12.04-7.93-12.04-7.93,0,0,3.84,47.1,11.41,57.02,7.57,9.92-4.03,4.56-4.03,4.56,0,0,4.5,23.3,8.3,26.57Z"/><path style="fill: rgb(242, 237, 225); stroke-width: 0px;" class="cls-8" d="m732.09,410.58c-.8,2.2-1.65,4.45-3.23,6.18s-4.06,2.83-6.29,2.13c-2.3-.73-3.71-3.19-3.93-5.59-.22-2.41.52-4.79,1.27-7.08,5.62-17.25,12.57-34.17,15.74-52.03,4.3-24.27,1.43-49.15.48-73.78-.67-17.48-.31-35.3,4.22-52.3,1.17-4.4,2.62-8.73,4.4-12.92,1.2-2.83,3.3-6.71,5.37-2.71,1.75,3.4,1.52,9.75,2.03,13.55.61,4.63,1.14,9.28,1.58,13.93,3.5,36.89,1.73,74.27-5.18,110.67-3.87,20.38-9.36,40.46-16.44,59.97Z"/><path style="fill: rgb(215, 198, 170); stroke-width: 0px;" class="cls-14" d="m733.23,267.41c-10.24,16.96-27.5,29.53-46.79,34.08,4.56-5.62,9.13-11.24,13.69-16.86,15.04-18.52,30.17-37.17,41.49-58.17,6.77,27.56,4.32,57.31-6.89,83.39-.19-12.79-.39-25.59-.58-38.38-.02-1.49-.51-2.63-.93-4.06Z"/><path style="fill: rgb(215, 198, 170); stroke-width: 0px;" class="cls-14" d="m743.24,337.71c.17,28.02-7.9,56.03-22.95,79.67-2.27-2.81-4.57-5.66-6.08-8.94-1.52-3.28-2.21-7.09-1.12-10.54.97-3.08,3.24-5.61,4.36-8.64,1.72-4.62.6-9.79,1.22-14.68.9-7.15,5.4-13.24,9.49-19.17,4.09-5.93,8.06-12.59,7.66-19.78-.16-2.91-3-13.34,3.09-11.29,4.7,1.58,4.32,9.57,4.34,13.38Z"/><path style="fill: rgb(242, 237, 225); stroke-width: 0px;" class="cls-8" d="m381.54,374.41s-13.04-13.68-14.68-36c0,0,8.13,6.15,14.87,6.15,0,0-20.14-43.5-6.59-63.93l38.12,61.85-31.73,31.93Z"/><g><path style="fill: rgb(148, 60, 16); stroke-width: 0px;" class="cls-16" d="m696.55,812.5l-.47,1.42s.58-.51,1.52-1.67c-.68.17-1.05.25-1.05.25Z"/></g><g><path style="stroke-width: 0px;" class="cls-2" d="m465.06,488.14c6.22,4.07,12.04,8.65,18.21,12.94l.6-.46c-2.4-6.03-5.58-11.78-9.53-16.95-8.93-12.07-21.65-21.38-36.4-24.97-21.39-5.46-46.42,3.96-57.28,23.43l.53.55c6.08-2.38,11.53-4.35,17.47-6.02,23.33-6.54,41.26-3.94,61.9,8.62.96.66,3.46,2.22,4.49,2.87Z"/><path style="stroke-width: 0px;" class="cls-2" d="m612.29,490.33c1.09-.52,3.74-1.79,4.79-2.34,29.61-13.82,51.3-8.47,79.14,6.46l.59-.48c-.92-2.55-2.25-4.86-3.72-7.09-7.67-11.38-19.94-19.47-33.53-22.13-20.62-4.18-42.06,4.97-55.99,20.09-4.51,4.68-8.33,10.03-11.39,15.75,0,0,.55.53.55.53,6.62-3.56,12.92-7.44,19.57-10.78Z"/><path style="stroke-width: 0px;" class="cls-2" d="m496.92,570.46c12.73,10.35,30.61,14.42,46.52,10.07,7.91-2.13,15.59-5.88,21.38-11.79,5.71-5.27,11.79-11.62,13.45-19.5-4.47,6.73-10.44,11.06-16.64,15.92-1.82,1.62-3.87,3.08-5.99,4.3-18.33,10.82-38.59,9.99-55.57-3.04-7.73-5.92-14.99-13.99-14.22-24.32-7.26,9.65,3.49,22.39,11.07,28.36Z"/><path style="stroke-width: 0px;" class="cls-2" d="M 355.36 573.12 C 464.678 631.992 583.211 625.987 683.707 597.582 C 760.424 575.898 806.608 535.181 817.25 500.85 C 817.25 500.85 765.49 497.08 751.6 436 L 753.39 434.41 C 753.98 433.88 754.52 433.29 754.98 432.65 C 785.27 390.04 788.51 341.07 790.58 298.26 C 792.66 255.12 777.59 209.71 772.63 195.23 C 767.67 180.75 759.54 175.79 759.54 175.79 C 741.89 188.28 740.9 189.47 682.79 213.47 C 624.68 237.47 599.44 277.58 599.44 277.58 C 599.44 277.58 586.2 277.43 581.29 277.28 C 587.69 261.22 584.41 250.36 584.41 250.36 C 546.42 253.43 519.8 261.54 501.15 271.13 C 468.71 217.77 416.29 192.63 392.53 181.64 C 368.73 170.63 350.13 154.27 350.13 154.27 C 273.51 297.96 334.38 415.76 334.38 418.14 C 334.38 419.73 325.55 433.81 319.69 442.97 C 310.13 454.59 303.61 462.73 302.6 463.95 C 280.98 485.57 260.56 487.15 260.56 487.15 C 262.92 491.36 265.87 495.19 265.87 495.19 C 269.76 500.72 275.54 508.25 282.33 514.96 C 294.97 527.45 326.958 557.824 355.36 573.12 Z M 737.72 297.96 C 736.93 299.55 735.05 301.13 735.05 301.13 C 736.75 287.05 732.76 266.03 732.76 266.03 C 732.76 301.33 727.8 316.55 727.8 316.55 C 732.26 314.02 734.79 310.45 734.79 310.45 C 737.76 353.59 714.11 371.14 714.11 371.14 C 713.73 385.58 711.2 391.86 709.38 394.53 C 688.72 370.28 654.02 341.49 654.02 341.49 C 692.99 305.3 719.47 269.4 729.58 254.52 C 738.18 241.87 750.28 204.36 753.7 193.41 C 754.96 192.74 756.24 192.06 757.54 191.35 C 757.54 191.35 757.55 191.37 757.57 191.39 C 759.14 200.41 770.46 267.95 764.09 309.25 C 757.25 353.58 744.46 394.63 727.8 422.59 L 723.19 415 C 721.83 411.5 719.37 407.43 716.17 403.05 C 721.26 391.12 722.61 370.23 722.61 370.23 C 748.06 347.98 737.72 297.94 737.72 297.94 L 737.72 297.96 Z M 349.36 173.26 C 348.52 202.27 353.32 228.82 360.59 251.91 C 346.95 290.76 358.52 312.24 358.52 312.24 C 351.58 308.47 346.22 301.73 346.22 301.73 C 336.9 332.47 357.09 364 357.09 364 C 354.08 362.02 352.76 361.22 352.76 361.22 C 351.99 377 357.62 390.06 360.22 395.18 C 354.95 401.17 349.72 407.21 344.68 413.11 C 295.64 287.36 338.95 192.96 349.36 173.25 L 349.36 173.26 Z M 364.82 390 C 360.84 383.61 359.31 372.33 359.31 372.33 C 369.42 377.29 372.6 376.89 372.6 376.89 C 348.8 350.91 355.41 314.02 355.41 314.02 L 367.05 322.55 C 352.31 298.48 360.42 270.28 363.7 261.19 C 380.38 308.05 406.11 338.77 410.52 343.82 C 398.67 353.25 381.76 370.99 364.83 390 L 364.82 390 Z M 328.57 536.15 C 312.51 522.66 285.93 503.82 275.82 492.32 C 310.13 483.59 322.43 460.59 333.14 446.31 C 343.85 432.03 351.78 420.73 364.87 400.3 C 377.96 379.87 416.34 339.61 416.34 339.61 C 361.79 278.96 350.68 184.46 349.52 172.98 C 350.76 170.65 351.49 169.44 351.49 169.44 C 362.5 178.96 377.97 188.78 384.51 191.75 C 410.69 203.95 441.63 223.88 452.34 233.99 C 461.81 242.93 485.62 270.64 491.01 276.94 C 461.25 296.02 457.99 317.88 457.99 317.88 C 457.99 317.88 497.56 269.69 567.17 263.74 C 567.17 263.74 563.6 279.71 551.9 292.6 L 555.17 290.62 L 598.8 291.31 C 598.8 291.31 592.6 299.14 596.32 317.14 C 596.32 317.14 598.9 284.07 643.52 251.35 C 687.06 219.42 701.81 221 753.64 193.46 C 738.64 238.09 713.82 268.69 691.92 289.83 C 669.51 311.45 644.92 338.62 644.92 338.62 C 680.22 365.59 713.09 413.83 718.75 421.12 C 724.4 428.41 723.96 431.68 722.77 434.36 C 721.58 437.04 715.33 444.72 715.33 444.72 C 715.33 444.72 736.35 433.22 755.39 378.48 C 774.2 324.39 774.66 238.75 758.02 192.05 C 760.85 196.53 776.15 223.05 779.39 277.53 C 782.96 337.62 765.9 402.97 735.86 435.4 C 735.86 435.4 765.645 507.003 807.16 507.19 C 807.16 507.19 779.822 544.007 704.62 575.61 C 683.601 584.443 587.556 606.927 528.71 606.35 C 469.864 605.773 388.89 573.23 375.01 565.89 C 361.13 558.55 344.67 549.63 328.6 536.14 L 328.57 536.15 Z"/></g><path style="stroke-width: 0px;" class="cls-2" d="m499.5,540.36c5.12,7.3,28.35,35.89,57.04,1.23.9-1.09,1.26-2.54.92-3.91-1.1-4.33-6.76-12.32-29.49-13.77-21.42-1.37-27.92,5.42-29.46,10.38-.64,2.07-.25,4.31.99,6.08Z"/><path style="fill: rgb(79, 80, 76); stroke-width: 0px;" class="cls-10" d="m544.69,536.24c-.4,1.46-1.7,2.46-2.93,3.35-2.97,2.15-6.05,4.36-9.62,5.15-2.66.59-5.43.36-8.13.05-3.78-.43-7.56-.98-11.17-2.19-1.18-.4-2.34-.86-3.46-1.41-1.95-.96-3.79-2.16-5.37-3.66-.79-.75-1.09-1.29-.94-2.42,0-.03,0-.05.02-.08.07-.44.21-.87.4-1.27.23-.46.52-.9.87-1.28,1.08-1.16,2.57-1.86,4.05-2.43.43-.16.84-.32,1.28-.46,1.77-.61,3.57-1.08,5.41-1.42,7.76-1.46,15.97-.66,23.59,1.61,1.57.46,3.16,1.02,4.39,2.09,1.23,1.07,2.05,2.78,1.62,4.36Z"/><path style="fill: rgb(206, 206, 197); stroke-width: 0px;" class="cls-9" d="m524.95,529.96c-.27.21-.6.3-.92.39-2.12.59-4.25,1.18-6.37,1.77-1.66.46-3.32.92-4.98,1.38-1.08.3-6.73,2.02-9.59,1.52.07-.44.21-.87.4-1.27.23-.46.52-.9.87-1.28,1.08-1.16,2.57-1.86,4.05-2.43.43-.16.84-.32,1.28-.46,1.77-.61,3.57-1.08,5.41-1.42,2.95-.12,5.91.05,8.86.21.56.03,1.24.17,1.38.7.08.33-.11.67-.37.87Z"/></g><rect x="-114.774" style="fill: none; stroke-width: 0px;" class="cls-4" y="-429.421" width="980" height="980"/></svg>